<svg xmlns="http://www.w3.org/2000/svg" viewBox="0 0 132.46 132.46"><defs><style>.cls-1{opacity:0.87;}.cls-2{fill:#fff;}</style></defs><g id="Слой_2" data-name="Слой 2"><g id="Слой_3" data-name="Слой 3"><g class="cls-1"><circle class="cls-2" cx="66.23" cy="66.23" r="66.23"/></g><path d="M101.38,62.55H69.91V31.1a2.59,2.59,0,0,0-2.58-2.58h-2.2a2.58,2.58,0,0,0-2.58,2.58V62.55H31.08a2.56,2.56,0,0,0-2.56,2.55v2.26a2.56,2.56,0,0,0,2.56,2.55H62.55v31.44a2.57,2.57,0,0,0,2.58,2.58h2.2a2.58,2.58,0,0,0,2.58-2.58V69.91h31.47a2.55,2.55,0,0,0,2.55-2.55V65.1A2.55,2.55,0,0,0,101.38,62.55Z"/></g></g></svg>